<?xml version="1.0" encoding="utf-8" standalone="no"?>
<!DOCTYPE svg PUBLIC "-//W3C//DTD SVG 1.1//EN"
  "http://www.w3.org/Graphics/SVG/1.1/DTD/svg11.dtd">
<svg xmlns:xlink="http://www.w3.org/1999/xlink" width="460.8pt" height="345.6pt" viewBox="0 0 460.8 345.6" xmlns="http://www.w3.org/2000/svg" version="1.1">
 <metadata>
  <rdf:RDF xmlns:dc="http://purl.org/dc/elements/1.1/" xmlns:cc="http://creativecommons.org/ns#" xmlns:rdf="http://www.w3.org/1999/02/22-rdf-syntax-ns#">
   <cc:Work>
    <dc:type rdf:resource="http://purl.org/dc/dcmitype/StillImage"/>
    <dc:date>2024-10-22T08:45:25.241258</dc:date>
    <dc:format>image/svg+xml</dc:format>
    <dc:creator>
     <cc:Agent>
      <dc:title>Matplotlib v3.9.2, https://matplotlib.org/</dc:title>
     </cc:Agent>
    </dc:creator>
   </cc:Work>
  </rdf:RDF>
 </metadata>
 <defs>
  <style type="text/css">*{stroke-linejoin: round; stroke-linecap: butt}</style>
 </defs>
 <g id="figure_1">
  <g id="patch_1">
   <path d="M 0 345.6 
L 460.8 345.6 
L 460.8 0 
L 0 0 
z
" style="fill: #ffffff"/>
  </g>
  <g id="patch_2">
   <path d="M 103.104 307.584 
L 369.216 307.584 
L 369.216 41.472 
L 103.104 41.472 
z
" style="fill: #ffffff"/>
  </g>
  <g id="pane3d_1">
   <g id="patch_3">
    <path d="M 123.197291 241.969309 
L 211.076164 168.307495 
L 209.854564 62.073991 
L 117.770234 129.272941 
" style="fill: #f2f2f2; opacity: 0.5; stroke: #f2f2f2; stroke-linejoin: miter"/>
   </g>
  </g>
  <g id="pane3d_2">
   <g id="patch_4">
    <path d="M 211.076164 168.307495 
L 352.090401 209.294766 
L 357.122702 99.402171 
L 209.854564 62.073991 
" style="fill: #e6e6e6; opacity: 0.5; stroke: #e6e6e6; stroke-linejoin: miter"/>
   </g>
  </g>
  <g id="pane3d_3">
   <g id="patch_5">
    <path d="M 123.197291 241.969309 
L 272.679269 290.790123 
L 352.090401 209.294766 
L 211.076164 168.307495 
" style="fill: #ececec; opacity: 0.5; stroke: #ececec; stroke-linejoin: miter"/>
   </g>
  </g>
  <g id="grid3d_1"/>
  <g id="grid3d_2"/>
  <g id="grid3d_3"/>
  <g id="axis3d_1">
   <g id="line2d_1">
    <path d="M 123.197291 241.969309 
L 272.679269 290.790123 
" style="fill: none; stroke: #000000; stroke-width: 0.8; stroke-linecap: square"/>
   </g>
  </g>
  <g id="axis3d_2">
   <g id="line2d_2">
    <path d="M 352.090401 209.294766 
L 272.679269 290.790123 
" style="fill: none; stroke: #000000; stroke-width: 0.8; stroke-linecap: square"/>
   </g>
  </g>
  <g id="axis3d_3">
   <g id="line2d_3">
    <path d="M 352.090401 209.294766 
L 357.122702 99.402171 
" style="fill: none; stroke: #000000; stroke-width: 0.8; stroke-linecap: square"/>
   </g>
  </g>
  <g id="axes_1">
   <g id="Poly3DCollection_1">
    <path d="M 211.076164 168.307495 
L 209.854564 62.073991 
L 357.122702 99.402171 
L 352.090401 209.294766 
z
" clip-path="url(#p33cb736d06)" style="fill: #969696; fill-opacity: 0.85; stroke: #000000; stroke-width: 0.1"/>
    <path d="M 123.197291 241.969309 
L 117.770234 129.272941 
L 209.854564 62.073991 
L 211.076164 168.307495 
z
" clip-path="url(#p33cb736d06)" style="fill: #969696; fill-opacity: 0.85; stroke: #000000; stroke-width: 0.1"/>
    <path d="M 123.197291 241.969309 
L 211.076164 168.307495 
L 352.090401 209.294766 
L 272.679269 290.790123 
z
" clip-path="url(#p33cb736d06)" style="fill: #969696; fill-opacity: 0.85; stroke: #000000; stroke-width: 0.1"/>
    <path d="M 117.770234 129.272941 
L 209.854564 62.073991 
L 357.122702 99.402171 
L 274.299292 174.092813 
z
" clip-path="url(#p33cb736d06)" style="fill: #969696; fill-opacity: 0.85; stroke: #000000; stroke-width: 0.1"/>
    <path d="M 272.679269 290.790123 
L 274.299292 174.092813 
L 357.122702 99.402171 
L 352.090401 209.294766 
z
" clip-path="url(#p33cb736d06)" style="fill: #969696; fill-opacity: 0.85; stroke: #000000; stroke-width: 0.1"/>
    <path d="M 123.197291 241.969309 
L 117.770234 129.272941 
L 274.299292 174.092813 
L 272.679269 290.790123 
z
" clip-path="url(#p33cb736d06)" style="fill: #969696; fill-opacity: 0.85; stroke: #000000; stroke-width: 0.1"/>
   </g>
  </g>
 </g>
 <defs>
  <clipPath id="p33cb736d06">
   <rect x="103.104" y="41.472" width="266.112" height="266.112"/>
  </clipPath>
 </defs>
</svg>
